<?xml version="1.0" standalone="no"?>
<!DOCTYPE svg PUBLIC "-//W3C//DTD SVG 20010904//EN"
 "http://www.w3.org/TR/2001/REC-SVG-20010904/DTD/svg10.dtd">
<svg version="1.0" xmlns="http://www.w3.org/2000/svg"
 width="260.000000pt" height="260.000000pt" viewBox="0 0 260.000000 260.000000"
 preserveAspectRatio="xMidYMid meet">
<metadata>
Created by potrace 1.11, written by Peter Selinger 2001-2013
</metadata>
<g transform="translate(0.000000,260.000000) scale(0.100000,-0.100000)"
fill="#000000" stroke="none">
<path d="M2105 2347 c-9 -23 -29 -60 -44 -82 -15 -22 -33 -54 -40 -72 -15 -37
-27 -43 -72 -36 -24 3 -46 18 -74 49 -25 27 -49 44 -62 44 -13 0 -23 -3 -24
-7 0 -5 -1 -62 -2 -127 -1 -86 -6 -121 -15 -124 -7 -2 -18 -9 -25 -16 -6 -6
-28 -23 -47 -36 -19 -13 -39 -29 -45 -35 -5 -7 -38 -36 -73 -65 l-63 -54 -45
12 c-61 17 -77 15 -108 -9 l-28 -22 -119 38 c-66 20 -134 39 -151 42 -17 2
-41 8 -52 13 -38 14 -208 12 -258 -4 -27 -8 -48 -12 -48 -10 0 6 -128 -45
-180 -71 -28 -14 -67 -25 -89 -25 -31 0 -44 -6 -60 -27 -12 -16 -25 -33 -31
-40 -5 -7 -11 -29 -12 -50 -2 -26 -12 -48 -32 -68 -43 -45 -74 -115 -81 -181
-4 -32 -8 -73 -10 -90 -2 -18 -13 -63 -24 -100 -26 -86 -30 -111 -37 -203 -3
-44 -19 -115 -40 -179 -33 -100 -35 -113 -36 -245 0 -79 -6 -163 -13 -195 -11
-46 -11 -60 -1 -70 16 -16 63 -25 70 -13 4 5 19 6 34 2 31 -8 39 -8 69 3 32
10 37 39 15 83 -20 38 -38 115 -34 143 9 75 31 125 84 197 42 57 64 100 83
158 25 82 80 186 102 192 14 5 6 -32 -13 -62 -15 -25 -21 -76 -10 -93 4 -8 7
-41 6 -75 -7 -199 -5 -238 9 -250 8 -7 17 -12 20 -11 3 0 19 -4 34 -11 38 -16
81 -7 114 23 l27 25 -44 38 c-41 35 -44 42 -44 86 0 52 36 161 63 190 9 10 36
46 59 80 49 73 72 87 120 79 29 -4 232 -100 267 -126 11 -8 125 -71 190 -105
43 -22 100 -43 136 -50 31 -6 33 -11 36 -68 3 -59 11 -121 20 -157 3 -14 8
-32 9 -42 2 -9 13 -41 24 -72 12 -30 21 -59 21 -63 1 -5 5 -13 9 -18 9 -11 22
-96 23 -148 0 -19 9 -34 23 -44 23 -14 120 -21 159 -10 11 3 23 6 26 6 23 3
15 41 -21 103 -44 73 -45 78 -61 178 -14 89 -17 157 -8 171 7 12 16 -3 76
-141 49 -109 133 -140 251 -91 56 23 38 67 -40 100 -60 25 -111 97 -103 146 2
16 7 47 10 68 3 22 12 69 20 105 14 62 22 106 24 124 1 5 14 20 30 34 36 32
58 76 64 129 3 22 21 70 40 106 19 37 38 89 42 118 8 57 19 68 150 151 38 25
79 55 90 68 11 12 30 24 42 27 12 2 32 9 45 16 13 7 29 12 36 11 23 -5 68 36
79 73 16 52 9 128 -16 168 -12 19 -21 43 -21 54 0 10 -16 34 -35 53 -21 20
-33 40 -30 49 17 44 -108 151 -202 171 -75 16 -75 17 -63 40 17 32 15 75 -5
119 -25 56 -40 58 -60 8z m178 -402 c33 -14 18 -28 -43 -40 -25 -5 -37 19 -20
40 12 15 30 15 63 0z"/>
</g>
</svg>
